# xmcd
#
# Track frame offsets: 
#        150
#        11351
#        23438
#        33694
#        43419
#        55853
#        68149
#        81850
#        92875
#        105592
#        118348
#        131640
#        145651
#        157229
#        167507
#        180566
#        192255
#        205097
#        216693
#        228008
#        238992
#        250575
#        262800
#
# Disc length: 3656 seconds
#
# Revision: 0
# Processed by: cddbd v1.5.2PL0 Copyright (c) Steve Scherf et al.
# Submitted via: ExactAudioCopy v0.95b4
#
DISCID=430e4617
DTITLE=Lil' Son Jackson - Vol, 1 1948 - 1950
DYEAR=2006
DGENRE=Blues
TTITLE0=Roberta Blues
TTITLE1=Freedom Train Blues
TTITLE2=Ground Hog Blues
TTITLE3=Bad Whiskey Bad Women
TTITLE4=Gone With The Wind ( She's Gone )
TTITLE5=No Money, No Love
TTITLE6=Talkin' Boogie
TTITLE7=Milford Blues
TTITLE8=Cairo Blues
TTITLE9=Evil Blues
TTITLE10=Gambling Blues
TTITLE11=Homeless(Blues) (Homesick Blues)
TTITLE12=Ticket Agent Blues
TTITLE13=True Love Blues
TTITLE14=Evening Blues
TTITLE15=Spending Money Blues
TTITLE16=Tough Luck Blues
TTITLE17=Peace Breaking Blues
TTITLE18=Rockin' ANd Rollin'
TTITLE19=Two Timin' Woman
TTITLE20=Rocky Road
TTITLE21=Disgusted
TTITLE22=Travellin' Alone
EXTD=
EXTT0=
EXTT1=
EXTT2=
EXTT3=
EXTT4=
EXTT5=
EXTT6=
EXTT7=
EXTT8=
EXTT9=
EXTT10=
EXTT11=
EXTT12=
EXTT13=
EXTT14=
EXTT15=
EXTT16=
EXTT17=
EXTT18=
EXTT19=
EXTT20=
EXTT21=
EXTT22=
PLAYORDER=
